<svg width="604" height="74" viewBox="0 0 604 74" fill="none" xmlns="http://www.w3.org/2000/svg">
<path d="M0 73.3008V0.009766H7.20117V73.3008H0ZM7.20703 13.6035V0.009766H36.0293V13.6035H7.20703ZM28.8281 39.6035V0.009766H36.0293V39.6035H28.8281ZM21.6211 52.6035V39.0098H28.8223V52.6035H21.6211ZM28.8281 52.6035V39.0098H36.0293V52.6035H28.8281ZM21.6211 65.6035V52.0098H32.4277V65.6035H21.6211ZM28.8281 65.6035V52.0098H36.0293V65.6035H28.8281ZM7.20703 73.3008V65.0098H36.0293V73.3008H7.20703ZM64.8633 13.6035V0.009766H72.0645V13.6035H64.8633ZM64.8633 26.6035V13.0098H72.0645V26.6035H64.8633ZM64.8633 39.6035V26.0098H72.0645V39.6035H64.8633ZM64.8633 52.6035V39.0098H72.0645V52.6035H64.8633ZM64.8633 65.6035V52.0098H72.0645V65.6035H64.8633ZM67.0957 73.3008V65.0098H72.0645V73.3008H67.0957ZM68.9707 71.4258V65.0098H72.0645V71.4258H68.9707ZM72.0703 13.6035V0.009766H79.2715V13.6035H72.0703ZM72.0703 26.6035V13.0098H79.2715V26.6035H72.0703ZM72.0703 39.6035V26.0098H79.2715V39.6035H72.0703ZM72.0703 52.6035V39.0098H79.2715V52.6035H72.0703ZM72.0703 65.6035V52.0098H79.2715V65.6035H72.0703ZM72.0703 71.4258V70.5645H79.2715V71.4258H72.0703ZM72.0703 73.3008V72.4395H79.2715V73.3008H72.0703ZM79.2773 13.6035V5.56445H84.2461V13.6035H79.2773ZM79.2773 13.6035V7.43945H82.3711V13.6035H79.2773ZM79.2773 73.3008V65.0098H84.2461V73.3008H79.2773ZM79.2773 71.4258V65.0098H82.3711V71.4258H79.2773ZM81.5098 26.6035V13.0098H82.3711V26.6035H81.5098ZM81.5098 39.6035V26.0098H82.3711V39.6035H81.5098ZM81.5098 52.6035V39.0098H82.3711V52.6035H81.5098ZM81.5098 65.6035V52.0098H82.3711V65.6035H81.5098ZM83.3848 26.6035V13.0098H84.2461V26.6035H83.3848ZM83.3848 39.6035V26.0098H84.2461V39.6035H83.3848ZM83.3848 52.6035V39.0098H84.2461V52.6035H83.3848ZM83.3848 65.6035V52.0098H84.2461V65.6035H83.3848ZM86.4844 13.6035V0.009766H93.6855V13.6035H86.4844ZM86.4844 26.6035V13.0098H93.6855V26.6035H86.4844ZM86.4844 39.6035V26.0098H93.6855V39.6035H86.4844ZM86.4844 52.6035V39.0098H93.6855V52.6035H86.4844ZM86.4844 65.6035V52.0098H93.6855V65.6035H86.4844ZM88.7168 73.3008V65.0098H93.6855V73.3008H88.7168ZM90.5918 71.4258V65.0098H93.6855V71.4258H90.5918ZM93.6914 13.6035V0.009766H100.893V13.6035H93.6914ZM93.6914 26.6035V13.0098H100.893V26.6035H93.6914ZM93.6914 39.6035V26.0098H100.893V39.6035H93.6914ZM93.6914 52.6035V39.0098H100.893V52.6035H93.6914ZM93.6914 65.6035V52.0098H100.893V65.6035H93.6914ZM93.6914 71.4258V70.5645H100.893V71.4258H93.6914ZM93.6914 73.3008V72.4395H100.893V73.3008H93.6914ZM100.898 13.6035V0.009766H108.1V13.6035H100.898ZM100.898 39.6035V26.0098H108.1V39.6035H100.898ZM100.898 65.6035V52.0098H108.1V65.6035H100.898ZM100.898 71.4258V70.5645H108.1V71.4258H100.898ZM100.898 73.3008V72.4395H108.1V73.3008H100.898ZM103.131 26.6035V18.5645H108.1V26.6035H103.131ZM103.131 52.6035V44.5645H108.1V52.6035H103.131ZM105.006 26.6035V20.4395H108.1V26.6035H105.006ZM105.006 52.6035V46.4395H108.1V52.6035H105.006ZM108.105 13.6035V0.009766H115.307V13.6035H108.105ZM108.105 19.4258V18.5645H115.307V19.4258H108.105ZM108.105 21.3008V20.4395H115.307V21.3008H108.105ZM108.105 39.6035V26.0098H115.307V39.6035H108.105ZM108.105 45.4258V44.5645H115.307V45.4258H108.105ZM108.105 47.3008V46.4395H115.307V47.3008H108.105ZM108.105 65.6035V52.0098H115.307V65.6035H108.105ZM108.105 71.4258V70.5645H115.307V71.4258H108.105ZM108.105 73.3008V72.4395H115.307V73.3008H108.105ZM115.312 13.6035V0.009766H122.514V13.6035H115.312ZM115.312 19.4258V18.5645H122.514V19.4258H115.312ZM115.312 21.3008V20.4395H122.514V21.3008H115.312ZM115.312 39.6035V26.0098H122.514V39.6035H115.312ZM115.312 45.4258V44.5645H122.514V45.4258H115.312ZM115.312 47.3008V46.4395H122.514V47.3008H115.312ZM115.312 65.6035V52.0098H122.514V65.6035H115.312ZM115.312 71.4258V70.5645H122.514V71.4258H115.312ZM115.312 73.3008V72.4395H122.514V73.3008H115.312ZM122.52 13.6035V0.009766H129.721V13.6035H122.52ZM122.52 26.6035V13.0098H129.721V26.6035H122.52ZM122.52 39.6035V26.0098H129.721V39.6035H122.52ZM122.52 52.6035V39.0098H129.721V52.6035H122.52ZM122.52 65.6035V52.0098H129.721V65.6035H122.52ZM122.52 71.4258V70.5645H129.721V71.4258H122.52ZM122.52 73.3008V72.4395H129.721V73.3008H122.52ZM129.727 13.6035V5.56445H134.695V13.6035H129.727ZM129.727 13.6035V7.43945H132.82V13.6035H129.727ZM129.727 26.6035V13.0098H136.928V26.6035H129.727ZM129.727 52.6035V39.0098H136.928V52.6035H129.727ZM129.727 73.3008V65.0098H134.695V73.3008H129.727ZM129.727 71.4258V65.0098H132.82V71.4258H129.727ZM131.959 39.6035V31.5645H136.928V39.6035H131.959ZM131.959 65.6035V57.5645H136.928V65.6035H131.959ZM133.834 39.6035V33.4395H136.928V39.6035H133.834ZM133.834 65.6035V59.4395H136.928V65.6035H133.834ZM136.934 26.6035V18.5645H141.902V26.6035H136.934ZM136.934 26.6035V20.4395H140.027V26.6035H136.934ZM136.934 34.3008V26.0098H141.902V34.3008H136.934ZM136.934 32.4258V26.0098H140.027V32.4258H136.934ZM136.934 52.6035V44.5645H141.902V52.6035H136.934ZM136.934 52.6035V46.4395H140.027V52.6035H136.934ZM136.934 60.3008V52.0098H141.902V60.3008H136.934ZM136.934 58.4258V52.0098H140.027V58.4258H136.934ZM144.141 13.6035V0.009766H151.342V13.6035H144.141ZM144.141 26.6035V13.0098H151.342V26.6035H144.141ZM144.141 39.6035V26.0098H151.342V39.6035H144.141ZM144.141 52.6035V39.0098H151.342V52.6035H144.141ZM144.141 65.6035V52.0098H151.342V65.6035H144.141ZM146.373 73.3008V65.0098H151.342V73.3008H146.373ZM148.248 71.4258V65.0098H151.342V71.4258H148.248ZM151.348 13.6035V0.009766H158.549V13.6035H151.348ZM151.348 26.6035V13.0098H158.549V26.6035H151.348ZM151.348 39.6035V26.0098H158.549V39.6035H151.348ZM151.348 52.6035V39.0098H158.549V52.6035H151.348ZM151.348 65.6035V52.0098H158.549V65.6035H151.348ZM151.348 71.4258V70.5645H158.549V71.4258H151.348ZM151.348 73.3008V72.4395H158.549V73.3008H151.348ZM158.555 13.6035V0.009766H165.756V13.6035H158.555ZM158.555 39.6035V26.0098H165.756V39.6035H158.555ZM158.555 65.6035V52.0098H165.756V65.6035H158.555ZM158.555 71.4258V70.5645H165.756V71.4258H158.555ZM158.555 73.3008V72.4395H165.756V73.3008H158.555ZM160.787 26.6035V18.5645H165.756V26.6035H160.787ZM160.787 52.6035V44.5645H165.756V52.6035H160.787ZM162.662 26.6035V20.4395H165.756V26.6035H162.662ZM162.662 52.6035V46.4395H165.756V52.6035H162.662ZM165.762 13.6035V0.009766H172.963V13.6035H165.762ZM165.762 19.4258V18.5645H172.963V19.4258H165.762ZM165.762 21.3008V20.4395H172.963V21.3008H165.762ZM165.762 39.6035V26.0098H172.963V39.6035H165.762ZM165.762 45.4258V44.5645H172.963V45.4258H165.762ZM165.762 47.3008V46.4395H172.963V47.3008H165.762ZM165.762 65.6035V52.0098H172.963V65.6035H165.762ZM165.762 71.4258V70.5645H172.963V71.4258H165.762ZM165.762 73.3008V72.4395H172.963V73.3008H165.762ZM172.969 13.6035V0.009766H180.17V13.6035H172.969ZM172.969 19.4258V18.5645H180.17V19.4258H172.969ZM172.969 21.3008V20.4395H180.17V21.3008H172.969ZM172.969 39.6035V26.0098H180.17V39.6035H172.969ZM172.969 45.4258V44.5645H180.17V45.4258H172.969ZM172.969 47.3008V46.4395H180.17V47.3008H172.969ZM172.969 65.6035V52.0098H180.17V65.6035H172.969ZM172.969 71.4258V70.5645H180.17V71.4258H172.969ZM172.969 73.3008V72.4395H180.17V73.3008H172.969ZM180.176 13.6035V0.009766H187.377V13.6035H180.176ZM180.176 19.4258V18.5645H187.377V19.4258H180.176ZM180.176 21.3008V20.4395H187.377V21.3008H180.176ZM180.176 39.6035V31.5645H185.145V39.6035H180.176ZM180.176 39.6035V33.4395H183.27V39.6035H180.176ZM180.176 47.3008V39.0098H185.145V47.3008H180.176ZM180.176 45.4258V39.0098H183.27V45.4258H180.176ZM180.176 65.6035V52.0098H187.377V65.6035H180.176ZM180.176 71.4258V70.5645H187.377V71.4258H180.176ZM180.176 73.3008V72.4395H187.377V73.3008H180.176ZM187.383 13.6035V0.009766H194.584V13.6035H187.383ZM187.383 19.4258V18.5645H194.584V19.4258H187.383ZM187.383 21.3008V20.4395H194.584V21.3008H187.383ZM187.383 39.6035V26.0098H194.584V39.6035H187.383ZM187.383 65.6035V52.0098H194.584V65.6035H187.383ZM187.383 71.4258V70.5645H194.584V71.4258H187.383ZM187.383 73.3008V72.4395H194.584V73.3008H187.383ZM189.615 47.3008V39.0098H194.584V47.3008H189.615ZM191.49 45.4258V39.0098H194.584V45.4258H191.49ZM194.59 13.6035V5.56445H199.559V13.6035H194.59ZM194.59 13.6035V7.43945H197.684V13.6035H194.59ZM194.59 21.3008V13.0098H199.559V21.3008H194.59ZM194.59 19.4258V13.0098H197.684V19.4258H194.59ZM194.59 39.6035V26.0098H201.791V39.6035H194.59ZM194.59 45.4258V44.5645H201.791V45.4258H194.59ZM194.59 47.3008V46.4395H201.791V47.3008H194.59ZM194.59 65.6035V57.5645H199.559V65.6035H194.59ZM194.59 65.6035V59.4395H197.684V65.6035H194.59ZM194.59 73.3008V65.0098H199.559V73.3008H194.59ZM194.59 71.4258V65.0098H197.684V71.4258H194.59ZM201.797 39.6035V26.0098H208.998V39.6035H201.797ZM201.797 45.4258V44.5645H208.998V45.4258H201.797ZM201.797 47.3008V46.4395H208.998V47.3008H201.797ZM209.004 39.6035V26.0098H216.205V39.6035H209.004ZM209.004 45.4258V44.5645H216.205V45.4258H209.004ZM209.004 47.3008V46.4395H216.205V47.3008H209.004ZM216.211 39.6035V26.0098H223.412V39.6035H216.211ZM216.211 45.4258V44.5645H223.412V45.4258H216.211ZM216.211 47.3008V46.4395H223.412V47.3008H216.211ZM223.418 39.6035V31.5645H228.387V39.6035H223.418ZM223.418 39.6035V33.4395H226.512V39.6035H223.418ZM223.418 47.3008V39.0098H228.387V47.3008H223.418ZM223.418 45.4258V39.0098H226.512V45.4258H223.418ZM230.625 13.6035V0.009766H237.826V13.6035H230.625ZM230.625 26.6035V13.0098H237.826V26.6035H230.625ZM230.625 39.6035V26.0098H237.826V39.6035H230.625ZM230.625 52.6035V39.0098H237.826V52.6035H230.625ZM230.625 65.6035V52.0098H237.826V65.6035H230.625ZM232.857 73.3008V65.0098H237.826V73.3008H232.857ZM234.732 71.4258V65.0098H237.826V71.4258H234.732ZM237.832 13.6035V0.009766H245.033V13.6035H237.832ZM237.832 26.6035V13.0098H245.033V26.6035H237.832ZM237.832 39.6035V26.0098H245.033V39.6035H237.832ZM237.832 52.6035V39.0098H245.033V52.6035H237.832ZM237.832 65.6035V52.0098H245.033V65.6035H237.832ZM237.832 71.4258V70.5645H245.033V71.4258H237.832ZM237.832 73.3008V72.4395H245.033V73.3008H237.832ZM245.039 13.6035V5.56445H250.008V13.6035H245.039ZM245.039 13.6035V7.43945H248.133V13.6035H245.039ZM245.039 39.6035V26.0098H252.24V39.6035H245.039ZM245.039 73.3008V65.0098H250.008V73.3008H245.039ZM245.039 71.4258V65.0098H248.133V71.4258H245.039ZM247.271 26.6035V13.0098H248.133V26.6035H247.271ZM247.271 52.6035V44.5645H252.24V52.6035H247.271ZM247.271 65.6035V52.0098H248.133V65.6035H247.271ZM249.146 26.6035V13.0098H250.008V26.6035H249.146ZM249.146 52.6035V46.4395H252.24V52.6035H249.146ZM249.146 65.6035V52.0098H250.008V65.6035H249.146ZM252.246 39.6035V26.0098H259.447V39.6035H252.246ZM252.246 45.4258V44.5645H259.447V45.4258H252.246ZM252.246 47.3008V46.4395H259.447V47.3008H252.246ZM259.453 26.6035V13.0098H266.654V26.6035H259.453ZM259.453 39.6035V26.0098H266.654V39.6035H259.453ZM259.453 52.6035V39.0098H266.654V52.6035H259.453ZM266.66 13.6035V0.009766H273.861V13.6035H266.66ZM266.66 26.6035V13.0098H273.861V26.6035H266.66ZM266.66 52.6035V39.0098H273.861V52.6035H266.66ZM266.66 65.6035V52.0098H273.861V65.6035H266.66ZM268.893 39.6035V31.5645H273.861V39.6035H268.893ZM268.893 73.3008V65.0098H273.861V73.3008H268.893ZM270.768 39.6035V33.4395H273.861V39.6035H270.768ZM270.768 71.4258V65.0098H273.861V71.4258H270.768ZM273.867 13.6035V0.009766H281.068V13.6035H273.867ZM273.867 34.3008V26.0098H278.836V34.3008H273.867ZM273.867 32.4258V26.0098H276.961V32.4258H273.867ZM273.867 52.6035V44.5645H278.836V52.6035H273.867ZM273.867 52.6035V46.4395H276.961V52.6035H273.867ZM273.867 65.6035V52.0098H281.068V65.6035H273.867ZM273.867 71.4258V70.5645H281.068V71.4258H273.867ZM273.867 73.3008V72.4395H281.068V73.3008H273.867ZM276.1 26.6035V18.5645H281.068V26.6035H276.1ZM277.975 26.6035V20.4395H281.068V26.6035H277.975ZM281.074 13.6035V5.56445H286.043V13.6035H281.074ZM281.074 13.6035V7.43945H284.168V13.6035H281.074ZM281.074 21.3008V13.0098H286.043V21.3008H281.074ZM281.074 19.4258V13.0098H284.168V19.4258H281.074ZM281.074 65.6035V57.5645H286.043V65.6035H281.074ZM281.074 65.6035V59.4395H284.168V65.6035H281.074ZM281.074 73.3008V65.0098H286.043V73.3008H281.074ZM281.074 71.4258V65.0098H284.168V71.4258H281.074ZM288.281 26.6035V13.0098H295.482V26.6035H288.281ZM288.281 39.6035V26.0098H295.482V39.6035H288.281ZM288.281 52.6035V39.0098H295.482V52.6035H288.281ZM288.281 65.6035V52.0098H295.482V65.6035H288.281ZM290.514 73.3008V65.0098H295.482V73.3008H290.514ZM292.389 71.4258V65.0098H295.482V71.4258H292.389ZM295.488 13.6035V0.009766H302.689V13.6035H295.488ZM295.488 26.6035V13.0098H302.689V26.6035H295.488ZM295.488 39.6035V26.0098H302.689V39.6035H295.488ZM295.488 52.6035V39.0098H302.689V52.6035H295.488ZM295.488 65.6035V52.0098H302.689V65.6035H295.488ZM295.488 71.4258V70.5645H302.689V71.4258H295.488ZM295.488 73.3008V72.4395H302.689V73.3008H295.488ZM302.695 13.6035V0.009766H309.896V13.6035H302.695ZM302.695 39.6035V26.0098H309.896V39.6035H302.695ZM302.695 73.3008V65.0098H307.664V73.3008H302.695ZM302.695 71.4258V65.0098H305.789V71.4258H302.695ZM304.928 26.6035V18.5645H309.896V26.6035H304.928ZM304.928 52.6035V44.5645H309.896V52.6035H304.928ZM304.928 65.6035V52.0098H305.789V65.6035H304.928ZM306.803 26.6035V20.4395H309.896V26.6035H306.803ZM306.803 52.6035V46.4395H309.896V52.6035H306.803ZM306.803 65.6035V52.0098H307.664V65.6035H306.803ZM309.902 13.6035V0.009766H317.104V13.6035H309.902ZM309.902 19.4258V18.5645H317.104V19.4258H309.902ZM309.902 21.3008V20.4395H317.104V21.3008H309.902ZM309.902 39.6035V26.0098H317.104V39.6035H309.902ZM309.902 45.4258V44.5645H317.104V45.4258H309.902ZM309.902 47.3008V46.4395H317.104V47.3008H309.902ZM317.109 13.6035V0.009766H324.311V13.6035H317.109ZM317.109 19.4258V18.5645H324.311V19.4258H317.109ZM317.109 21.3008V20.4395H324.311V21.3008H317.109ZM317.109 39.6035V26.0098H324.311V39.6035H317.109ZM317.109 45.4258V44.5645H324.311V45.4258H317.109ZM317.109 47.3008V46.4395H324.311V47.3008H317.109ZM324.316 13.6035V0.009766H331.518V13.6035H324.316ZM324.316 26.6035V13.0098H331.518V26.6035H324.316ZM324.316 39.6035V26.0098H331.518V39.6035H324.316ZM324.316 52.6035V39.0098H331.518V52.6035H324.316ZM324.316 65.6035V52.0098H331.518V65.6035H324.316ZM326.549 73.3008V65.0098H331.518V73.3008H326.549ZM328.424 71.4258V65.0098H331.518V71.4258H328.424ZM331.523 13.6035V5.56445H336.492V13.6035H331.523ZM331.523 13.6035V7.43945H334.617V13.6035H331.523ZM331.523 26.6035V13.0098H338.725V26.6035H331.523ZM331.523 39.6035V26.0098H338.725V39.6035H331.523ZM331.523 52.6035V39.0098H338.725V52.6035H331.523ZM331.523 65.6035V52.0098H338.725V65.6035H331.523ZM331.523 71.4258V70.5645H338.725V71.4258H331.523ZM331.523 73.3008V72.4395H338.725V73.3008H331.523ZM338.73 26.6035V18.5645H343.699V26.6035H338.73ZM338.73 26.6035V20.4395H341.824V26.6035H338.73ZM338.73 73.3008V65.0098H343.699V73.3008H338.73ZM338.73 71.4258V65.0098H341.824V71.4258H338.73ZM340.963 39.6035V26.0098H341.824V39.6035H340.963ZM340.963 52.6035V39.0098H341.824V52.6035H340.963ZM340.963 65.6035V52.0098H341.824V65.6035H340.963ZM342.838 39.6035V26.0098H343.699V39.6035H342.838ZM342.838 52.6035V39.0098H343.699V52.6035H342.838ZM342.838 65.6035V52.0098H343.699V65.6035H342.838ZM345.938 13.6035V0.009766H353.139V13.6035H345.938ZM345.938 26.6035V13.0098H353.139V26.6035H345.938ZM345.938 39.6035V26.0098H353.139V39.6035H345.938ZM345.938 52.6035V39.0098H353.139V52.6035H345.938ZM345.938 65.6035V52.0098H353.139V65.6035H345.938ZM348.17 73.3008V65.0098H353.139V73.3008H348.17ZM350.045 71.4258V65.0098H353.139V71.4258H350.045ZM353.145 13.6035V0.009766H360.346V13.6035H353.145ZM353.145 26.6035V13.0098H360.346V26.6035H353.145ZM353.145 39.6035V26.0098H360.346V39.6035H353.145ZM353.145 52.6035V39.0098H360.346V52.6035H353.145ZM353.145 65.6035V52.0098H360.346V65.6035H353.145ZM353.145 71.4258V70.5645H360.346V71.4258H353.145ZM353.145 73.3008V72.4395H360.346V73.3008H353.145ZM360.352 13.6035V0.009766H367.553V13.6035H360.352ZM360.352 26.6035V13.0098H367.553V26.6035H360.352ZM360.352 73.3008V65.0098H365.32V73.3008H360.352ZM360.352 71.4258V65.0098H363.445V71.4258H360.352ZM362.584 39.6035V31.5645H367.553V39.6035H362.584ZM362.584 52.6035V39.0098H363.445V52.6035H362.584ZM362.584 65.6035V52.0098H363.445V65.6035H362.584ZM364.459 39.6035V33.4395H367.553V39.6035H364.459ZM364.459 52.6035V39.0098H365.32V52.6035H364.459ZM364.459 65.6035V52.0098H365.32V65.6035H364.459ZM367.559 13.6035V5.56445H372.527V13.6035H367.559ZM367.559 13.6035V7.43945H370.652V13.6035H367.559ZM367.559 26.6035V13.0098H374.76V26.6035H367.559ZM367.559 39.6035V26.0098H374.76V39.6035H367.559ZM369.791 47.3008V39.0098H374.76V47.3008H369.791ZM371.666 45.4258V39.0098H374.76V45.4258H371.666ZM374.766 26.6035V18.5645H379.734V26.6035H374.766ZM374.766 26.6035V20.4395H377.859V26.6035H374.766ZM374.766 39.6035V26.0098H381.967V39.6035H374.766ZM374.766 52.6035V39.0098H381.967V52.6035H374.766ZM376.998 60.3008V52.0098H381.967V60.3008H376.998ZM378.873 58.4258V52.0098H381.967V58.4258H378.873ZM381.973 39.6035V31.5645H386.941V39.6035H381.973ZM381.973 39.6035V33.4395H385.066V39.6035H381.973ZM381.973 52.6035V39.0098H389.174V52.6035H381.973ZM381.973 65.6035V52.0098H389.174V65.6035H381.973ZM384.205 73.3008V65.0098H389.174V73.3008H384.205ZM386.08 71.4258V65.0098H389.174V71.4258H386.08ZM389.18 52.6035V44.5645H394.148V52.6035H389.18ZM389.18 52.6035V46.4395H392.273V52.6035H389.18ZM389.18 65.6035V52.0098H396.381V65.6035H389.18ZM389.18 71.4258V70.5645H396.381V71.4258H389.18ZM389.18 73.3008V72.4395H396.381V73.3008H389.18ZM396.387 13.6035V0.009766H403.588V13.6035H396.387ZM396.387 26.6035V13.0098H403.588V26.6035H396.387ZM396.387 39.6035V26.0098H403.588V39.6035H396.387ZM396.387 52.6035V39.0098H403.588V52.6035H396.387ZM396.387 65.6035V52.0098H403.588V65.6035H396.387ZM396.387 71.4258V70.5645H403.588V71.4258H396.387ZM396.387 73.3008V72.4395H403.588V73.3008H396.387ZM403.594 13.6035V0.009766H410.795V13.6035H403.594ZM403.594 26.6035V13.0098H410.795V26.6035H403.594ZM403.594 39.6035V26.0098H410.795V39.6035H403.594ZM403.594 52.6035V39.0098H410.795V52.6035H403.594ZM403.594 65.6035V52.0098H410.795V65.6035H403.594ZM403.594 71.4258V70.5645H410.795V71.4258H403.594ZM403.594 73.3008V72.4395H410.795V73.3008H403.594ZM410.801 13.6035V5.56445H415.77V13.6035H410.801ZM410.801 13.6035V7.43945H413.895V13.6035H410.801ZM410.801 73.3008V65.0098H415.77V73.3008H410.801ZM410.801 71.4258V65.0098H413.895V71.4258H410.801ZM413.033 26.6035V13.0098H413.895V26.6035H413.033ZM413.033 39.6035V26.0098H413.895V39.6035H413.033ZM413.033 52.6035V39.0098H413.895V52.6035H413.033ZM413.033 65.6035V52.0098H413.895V65.6035H413.033ZM414.908 26.6035V13.0098H415.77V26.6035H414.908ZM414.908 39.6035V26.0098H415.77V39.6035H414.908ZM414.908 52.6035V39.0098H415.77V52.6035H414.908ZM414.908 65.6035V52.0098H415.77V65.6035H414.908ZM418.008 13.6035V0.009766H425.209V13.6035H418.008ZM418.008 26.6035V13.0098H425.209V26.6035H418.008ZM418.008 39.6035V26.0098H425.209V39.6035H418.008ZM418.008 52.6035V39.0098H425.209V52.6035H418.008ZM418.008 65.6035V52.0098H425.209V65.6035H418.008ZM420.24 73.3008V65.0098H425.209V73.3008H420.24ZM422.115 71.4258V65.0098H425.209V71.4258H422.115ZM425.215 13.6035V0.009766H432.416V13.6035H425.215ZM425.215 26.6035V13.0098H432.416V26.6035H425.215ZM425.215 39.6035V26.0098H432.416V39.6035H425.215ZM425.215 52.6035V39.0098H432.416V52.6035H425.215ZM425.215 65.6035V52.0098H432.416V65.6035H425.215ZM425.215 71.4258V70.5645H432.416V71.4258H425.215ZM425.215 73.3008V72.4395H432.416V73.3008H425.215ZM432.422 13.6035V0.009766H439.623V13.6035H432.422ZM432.422 39.6035V26.0098H439.623V39.6035H432.422ZM432.422 65.6035V52.0098H439.623V65.6035H432.422ZM432.422 71.4258V70.5645H439.623V71.4258H432.422ZM432.422 73.3008V72.4395H439.623V73.3008H432.422ZM434.654 26.6035V18.5645H439.623V26.6035H434.654ZM434.654 52.6035V44.5645H439.623V52.6035H434.654ZM436.529 26.6035V20.4395H439.623V26.6035H436.529ZM436.529 52.6035V46.4395H439.623V52.6035H436.529ZM439.629 13.6035V0.009766H446.83V13.6035H439.629ZM439.629 19.4258V18.5645H446.83V19.4258H439.629ZM439.629 21.3008V20.4395H446.83V21.3008H439.629ZM439.629 39.6035V26.0098H446.83V39.6035H439.629ZM439.629 45.4258V44.5645H446.83V45.4258H439.629ZM439.629 47.3008V46.4395H446.83V47.3008H439.629ZM439.629 65.6035V52.0098H446.83V65.6035H439.629ZM439.629 71.4258V70.5645H446.83V71.4258H439.629ZM439.629 73.3008V72.4395H446.83V73.3008H439.629ZM446.836 13.6035V0.009766H454.037V13.6035H446.836ZM446.836 19.4258V18.5645H454.037V19.4258H446.836ZM446.836 21.3008V20.4395H454.037V21.3008H446.836ZM446.836 39.6035V26.0098H454.037V39.6035H446.836ZM446.836 45.4258V44.5645H454.037V45.4258H446.836ZM446.836 47.3008V46.4395H454.037V47.3008H446.836ZM446.836 65.6035V52.0098H454.037V65.6035H446.836ZM446.836 71.4258V70.5645H454.037V71.4258H446.836ZM446.836 73.3008V72.4395H454.037V73.3008H446.836ZM454.043 13.6035V0.009766H461.244V13.6035H454.043ZM454.043 26.6035V13.0098H461.244V26.6035H454.043ZM454.043 39.6035V26.0098H461.244V39.6035H454.043ZM454.043 52.6035V39.0098H461.244V52.6035H454.043ZM454.043 65.6035V52.0098H461.244V65.6035H454.043ZM454.043 71.4258V70.5645H461.244V71.4258H454.043ZM454.043 73.3008V72.4395H461.244V73.3008H454.043ZM461.25 13.6035V5.56445H466.219V13.6035H461.25ZM461.25 13.6035V7.43945H464.344V13.6035H461.25ZM461.25 26.6035V13.0098H468.451V26.6035H461.25ZM461.25 52.6035V39.0098H468.451V52.6035H461.25ZM461.25 73.3008V65.0098H466.219V73.3008H461.25ZM461.25 71.4258V65.0098H464.344V71.4258H461.25ZM463.482 39.6035V31.5645H468.451V39.6035H463.482ZM463.482 65.6035V57.5645H468.451V65.6035H463.482ZM465.357 39.6035V33.4395H468.451V39.6035H465.357ZM465.357 65.6035V59.4395H468.451V65.6035H465.357ZM468.457 26.6035V18.5645H473.426V26.6035H468.457ZM468.457 26.6035V20.4395H471.551V26.6035H468.457ZM468.457 34.3008V26.0098H473.426V34.3008H468.457ZM468.457 32.4258V26.0098H471.551V32.4258H468.457ZM468.457 52.6035V44.5645H473.426V52.6035H468.457ZM468.457 52.6035V46.4395H471.551V52.6035H468.457ZM468.457 60.3008V52.0098H473.426V60.3008H468.457ZM468.457 58.4258V52.0098H471.551V58.4258H468.457ZM475.664 26.6035V13.0098H482.865V26.6035H475.664ZM475.664 39.6035V26.0098H482.865V39.6035H475.664ZM475.664 52.6035V39.0098H482.865V52.6035H475.664ZM475.664 65.6035V52.0098H482.865V65.6035H475.664ZM477.896 73.3008V65.0098H482.865V73.3008H477.896ZM479.771 71.4258V65.0098H482.865V71.4258H479.771ZM482.871 13.6035V0.009766H490.072V13.6035H482.871ZM482.871 26.6035V13.0098H490.072V26.6035H482.871ZM482.871 39.6035V26.0098H490.072V39.6035H482.871ZM482.871 52.6035V39.0098H490.072V52.6035H482.871ZM482.871 65.6035V52.0098H490.072V65.6035H482.871ZM482.871 71.4258V70.5645H490.072V71.4258H482.871ZM482.871 73.3008V72.4395H490.072V73.3008H482.871ZM490.078 13.6035V0.009766H497.279V13.6035H490.078ZM490.078 39.6035V26.0098H497.279V39.6035H490.078ZM490.078 73.3008V65.0098H495.047V73.3008H490.078ZM490.078 71.4258V65.0098H493.172V71.4258H490.078ZM492.311 26.6035V18.5645H497.279V26.6035H492.311ZM492.311 52.6035V44.5645H497.279V52.6035H492.311ZM492.311 65.6035V52.0098H493.172V65.6035H492.311ZM494.186 26.6035V20.4395H497.279V26.6035H494.186ZM494.186 52.6035V46.4395H497.279V52.6035H494.186ZM494.186 65.6035V52.0098H495.047V65.6035H494.186ZM497.285 13.6035V0.009766H504.486V13.6035H497.285ZM497.285 19.4258V18.5645H504.486V19.4258H497.285ZM497.285 21.3008V20.4395H504.486V21.3008H497.285ZM497.285 39.6035V26.0098H504.486V39.6035H497.285ZM497.285 45.4258V44.5645H504.486V45.4258H497.285ZM497.285 47.3008V46.4395H504.486V47.3008H497.285ZM504.492 13.6035V0.009766H511.693V13.6035H504.492ZM504.492 19.4258V18.5645H511.693V19.4258H504.492ZM504.492 21.3008V20.4395H511.693V21.3008H504.492ZM504.492 39.6035V26.0098H511.693V39.6035H504.492ZM504.492 45.4258V44.5645H511.693V45.4258H504.492ZM504.492 47.3008V46.4395H511.693V47.3008H504.492ZM511.699 13.6035V0.009766H518.9V13.6035H511.699ZM511.699 26.6035V13.0098H518.9V26.6035H511.699ZM511.699 39.6035V26.0098H518.9V39.6035H511.699ZM511.699 52.6035V39.0098H518.9V52.6035H511.699ZM511.699 65.6035V52.0098H518.9V65.6035H511.699ZM513.932 73.3008V65.0098H518.9V73.3008H513.932ZM515.807 71.4258V65.0098H518.9V71.4258H515.807ZM518.906 13.6035V5.56445H523.875V13.6035H518.906ZM518.906 13.6035V7.43945H522V13.6035H518.906ZM518.906 26.6035V13.0098H526.107V26.6035H518.906ZM518.906 39.6035V26.0098H526.107V39.6035H518.906ZM518.906 52.6035V39.0098H526.107V52.6035H518.906ZM518.906 65.6035V52.0098H526.107V65.6035H518.906ZM518.906 71.4258V70.5645H526.107V71.4258H518.906ZM518.906 73.3008V72.4395H526.107V73.3008H518.906ZM526.113 26.6035V18.5645H531.082V26.6035H526.113ZM526.113 26.6035V20.4395H529.207V26.6035H526.113ZM526.113 73.3008V65.0098H531.082V73.3008H526.113ZM526.113 71.4258V65.0098H529.207V71.4258H526.113ZM528.346 39.6035V26.0098H529.207V39.6035H528.346ZM528.346 52.6035V39.0098H529.207V52.6035H528.346ZM528.346 65.6035V52.0098H529.207V65.6035H528.346ZM530.221 39.6035V26.0098H531.082V39.6035H530.221ZM530.221 52.6035V39.0098H531.082V52.6035H530.221ZM530.221 65.6035V52.0098H531.082V65.6035H530.221ZM533.32 13.6035V0.009766H540.521V13.6035H533.32ZM533.32 26.6035V13.0098H540.521V26.6035H533.32ZM533.32 39.6035V26.0098H540.521V39.6035H533.32ZM533.32 52.6035V39.0098H540.521V52.6035H533.32ZM533.32 65.6035V52.0098H540.521V65.6035H533.32ZM535.553 73.3008V65.0098H540.521V73.3008H535.553ZM537.428 71.4258V65.0098H540.521V71.4258H537.428ZM540.527 13.6035V0.009766H547.729V13.6035H540.527ZM540.527 26.6035V13.0098H547.729V26.6035H540.527ZM540.527 39.6035V26.0098H547.729V39.6035H540.527ZM540.527 52.6035V39.0098H547.729V52.6035H540.527ZM540.527 65.6035V52.0098H547.729V65.6035H540.527ZM540.527 71.4258V70.5645H547.729V71.4258H540.527ZM540.527 73.3008V72.4395H547.729V73.3008H540.527ZM547.734 13.6035V0.009766H554.936V13.6035H547.734ZM547.734 26.6035V13.0098H554.936V26.6035H547.734ZM547.734 73.3008V65.0098H552.703V73.3008H547.734ZM547.734 71.4258V65.0098H550.828V71.4258H547.734ZM549.967 39.6035V31.5645H554.936V39.6035H549.967ZM549.967 52.6035V39.0098H550.828V52.6035H549.967ZM549.967 65.6035V52.0098H550.828V65.6035H549.967ZM551.842 39.6035V33.4395H554.936V39.6035H551.842ZM551.842 52.6035V39.0098H552.703V52.6035H551.842ZM551.842 65.6035V52.0098H552.703V65.6035H551.842ZM554.941 13.6035V5.56445H559.91V13.6035H554.941ZM554.941 13.6035V7.43945H558.035V13.6035H554.941ZM554.941 26.6035V13.0098H562.143V26.6035H554.941ZM554.941 39.6035V26.0098H562.143V39.6035H554.941ZM557.174 47.3008V39.0098H562.143V47.3008H557.174ZM559.049 45.4258V39.0098H562.143V45.4258H559.049ZM562.148 26.6035V18.5645H567.117V26.6035H562.148ZM562.148 26.6035V20.4395H565.242V26.6035H562.148ZM562.148 39.6035V26.0098H569.35V39.6035H562.148ZM562.148 52.6035V39.0098H569.35V52.6035H562.148ZM564.381 60.3008V52.0098H569.35V60.3008H564.381ZM566.256 58.4258V52.0098H569.35V58.4258H566.256ZM569.355 39.6035V31.5645H574.324V39.6035H569.355ZM569.355 39.6035V33.4395H572.449V39.6035H569.355ZM569.355 52.6035V39.0098H576.557V52.6035H569.355ZM569.355 65.6035V52.0098H576.557V65.6035H569.355ZM571.588 73.3008V65.0098H576.557V73.3008H571.588ZM573.463 71.4258V65.0098H576.557V71.4258H573.463ZM576.562 52.6035V44.5645H581.531V52.6035H576.562ZM576.562 52.6035V46.4395H579.656V52.6035H576.562ZM576.562 65.6035V52.0098H583.764V65.6035H576.562ZM576.562 71.4258V70.5645H583.764V71.4258H576.562ZM576.562 73.3008V72.4395H583.764V73.3008H576.562ZM583.77 13.6035V0.009766H590.971V13.6035H583.77ZM583.77 26.6035V13.0098H590.971V26.6035H583.77ZM583.77 39.6035V26.0098H590.971V39.6035H583.77ZM583.77 52.6035V39.0098H590.971V52.6035H583.77ZM583.77 65.6035V52.0098H590.971V65.6035H583.77ZM583.77 71.4258V70.5645H590.971V71.4258H583.77ZM583.77 73.3008V72.4395H590.971V73.3008H583.77ZM590.977 13.6035V0.009766H598.178V13.6035H590.977ZM590.977 26.6035V13.0098H598.178V26.6035H590.977ZM590.977 39.6035V26.0098H598.178V39.6035H590.977ZM590.977 52.6035V39.0098H598.178V52.6035H590.977ZM590.977 65.6035V52.0098H598.178V65.6035H590.977ZM590.977 71.4258V70.5645H598.178V71.4258H590.977ZM590.977 73.3008V72.4395H598.178V73.3008H590.977ZM598.184 13.6035V5.56445H603.152V13.6035H598.184ZM598.184 13.6035V7.43945H601.277V13.6035H598.184ZM598.184 73.3008V65.0098H603.152V73.3008H598.184ZM598.184 71.4258V65.0098H601.277V71.4258H598.184ZM600.416 26.6035V13.0098H601.277V26.6035H600.416ZM600.416 39.6035V26.0098H601.277V39.6035H600.416ZM600.416 52.6035V39.0098H601.277V52.6035H600.416ZM600.416 65.6035V52.0098H601.277V65.6035H600.416ZM602.291 26.6035V13.0098H603.152V26.6035H602.291ZM602.291 39.6035V26.0098H603.152V39.6035H602.291ZM602.291 52.6035V39.0098H603.152V52.6035H602.291ZM602.291 65.6035V52.0098H603.152V65.6035H602.291Z" fill="white"/>
</svg>
